<svg version="1.1" id="Layer_1" xmlns="http://www.w3.org/2000/svg" xmlns:xlink="http://www.w3.org/1999/xlink" x="0px" y="0px"
	 width="100%" viewBox="0 0 1080 1080" enable-background="new 0 0 1080 1080" xml:space="preserve">
<path fill="#0141A1" opacity="1.000000" stroke="none" 
	d="
M628.000000,1081.000000 
	C418.690765,1081.000000 209.881531,1081.000000 1.036147,1081.000000 
	C1.036147,721.065674 1.036147,361.131287 1.036147,1.098460 
	C360.892792,1.098460 720.785645,1.098460 1080.839233,1.098460 
	C1080.839233,360.999939 1080.839233,720.999939 1080.839233,1081.000000 
	C930.130859,1081.000000 779.315430,1081.000000 628.000000,1081.000000 
M755.089355,460.757874 
	C755.008667,461.749969 754.857422,462.742096 754.857300,463.734192 
	C754.851379,513.493835 754.856628,563.253479 754.875122,613.013123 
	C754.875549,614.310059 755.037231,615.607056 755.154541,617.364990 
	C764.496826,617.364990 773.615967,617.450562 782.732483,617.331482 
	C787.855408,617.264587 792.973938,616.859558 798.671997,616.112610 
	C798.817749,614.799377 799.089661,613.486267 799.091064,612.172913 
	C799.144836,562.851807 799.138367,513.530579 799.268677,464.209778 
	C799.279846,459.982239 797.629028,458.716766 793.625610,458.776123 
	C782.297791,458.944122 770.965515,458.798401 759.635742,458.879974 
	C758.253418,458.889923 756.875610,459.532776 755.089355,460.757874 
M252.794037,383.349243 
	C213.401886,388.584290 174.009735,393.819305 134.554169,399.062775 
	C134.401535,400.570526 134.219986,401.545105 134.215973,402.520416 
	C133.927216,472.649658 133.675522,542.779053 133.312744,612.907959 
	C133.293488,616.629028 134.467636,617.825989 138.179123,617.760925 
	C151.335693,617.530273 164.497360,617.598022 177.656815,617.512756 
	C179.258682,617.502441 180.858963,617.249573 182.839310,617.075806 
	C182.839310,614.958252 182.839798,613.311218 182.839249,611.664185 
	C182.831161,587.510132 182.912430,563.355347 182.728683,539.202637 
	C182.697220,535.067688 183.900726,532.057800 186.640228,528.976013 
	C230.669968,479.444611 274.589417,429.815155 318.503784,380.181274 
	C319.702271,378.826691 320.565399,377.175415 322.413513,374.432892 
	C298.455902,377.501495 276.069458,380.368866 252.794037,383.349243 
M915.555176,511.150940 
	C927.671326,511.150940 939.787415,511.150940 951.903564,511.150940 
	C952.307861,510.678314 952.712158,510.205688 953.116516,509.733063 
	C949.639954,503.031097 946.714539,495.967010 942.590271,489.690674 
	C925.866760,464.240692 895.042114,453.233917 868.032898,463.099548 
	C848.110168,470.376678 836.192749,485.773438 827.600708,504.396729 
	C825.682373,508.554535 826.495728,510.756958 830.121643,513.378784 
	C848.200439,526.451660 866.081848,539.797546 884.019470,553.065430 
	C885.946411,554.490723 887.787537,556.032104 889.668518,557.519653 
	C889.532043,557.843506 889.395630,558.167297 889.259216,558.491150 
	C868.264404,558.491150 847.269592,558.491150 826.171387,558.491150 
	C826.171387,559.469116 826.036560,559.998047 826.190796,560.421814 
	C833.016418,579.174011 843.399719,595.439026 860.336121,606.568176 
	C877.605774,617.916443 895.904175,621.206604 915.079285,611.154968 
	C933.983765,601.245117 944.193481,584.521545 951.038696,565.108337 
	C952.395508,561.260498 951.599304,559.219910 948.191956,556.994446 
	C927.843323,543.704224 907.643799,530.185547 887.411987,516.716919 
	C885.559387,515.483582 883.831421,514.063049 882.045593,512.729431 
	C882.162109,512.205505 882.278625,511.681610 882.395142,511.157715 
	C893.121826,511.157715 903.848511,511.157715 915.555176,511.150940 
M342.035126,590.360779 
	C358.565613,598.981567 375.036285,607.720886 391.680084,616.117004 
	C394.788910,617.685303 398.587524,618.558960 402.075470,618.581787 
	C414.402954,618.662598 426.734039,618.247375 439.062927,617.982727 
	C440.453949,617.952942 441.839813,617.685303 443.228088,617.527954 
	C443.351959,617.121582 443.475861,616.715210 443.599762,616.308777 
	C413.985748,598.388489 384.371765,580.468201 354.757782,562.547913 
	C362.601868,560.736877 370.154449,560.073975 377.653870,559.029541 
	C393.717651,556.792419 409.508453,553.451782 423.846405,545.402100 
	C446.326691,532.781128 448.281097,513.728333 428.948547,496.764740 
	C418.646637,487.725250 406.602814,481.706848 393.905487,476.987305 
	C357.463623,463.441925 319.447388,459.727325 280.939514,459.488678 
	C272.935242,459.439056 264.925903,460.202393 256.918915,460.591064 
	C257.728973,462.169586 258.536713,462.816803 259.439758,463.003662 
	C293.849548,470.125122 328.042877,478.112305 361.453491,489.106018 
	C373.942688,493.215576 386.498749,497.395264 397.181885,505.433929 
	C404.385345,510.854218 404.305206,516.559387 396.248749,520.354187 
	C388.347290,524.075928 379.858917,526.954529 371.328522,528.866516 
	C339.382538,536.027161 306.820740,538.665100 274.249664,541.079895 
	C267.392456,541.588257 260.546417,542.247742 253.695236,542.837585 
	C253.612686,543.305542 253.530136,543.773499 253.447601,544.241455 
	C282.760864,559.494690 312.074127,574.747986 342.035126,590.360779 
M646.384155,572.801941 
	C658.286438,565.074097 670.188721,557.346191 683.059021,548.989868 
	C683.059021,572.805176 683.059021,595.219727 683.059021,618.632019 
	C695.663086,618.632019 707.796692,618.596252 719.929993,618.645935 
	C726.749207,618.673889 726.768066,618.737427 726.730225,611.920410 
	C726.461304,563.446228 726.186646,514.972046 725.897705,466.497955 
	C725.888245,464.910645 725.708069,463.324371 725.570435,461.154907 
	C723.905090,462.063782 722.714905,462.569946 721.681213,463.298248 
	C688.751221,486.499451 655.806030,509.679535 623.001526,533.057068 
	C621.203918,534.338135 619.634155,537.272034 619.591431,539.468323 
	C619.293640,554.788147 619.415588,570.116394 619.444336,585.441833 
	C619.446655,586.659241 619.760498,587.876099 620.026672,589.791748 
	C629.022095,583.968445 637.383789,578.555420 646.384155,572.801941 
M570.039001,460.071564 
	C557.740906,459.821442 545.434814,459.755768 533.148621,459.228485 
	C528.368347,459.023346 526.942749,460.407990 526.985596,465.309753 
	C527.412476,514.102966 527.587280,562.898376 527.850159,611.693054 
	C527.859619,613.446594 528.044189,615.199158 528.143188,616.884155 
	C542.660706,616.884155 556.565796,616.884155 571.124268,616.884155 
	C571.124268,581.466675 571.124268,546.445862 571.124268,510.421021 
	C588.409607,510.421021 605.046082,510.421021 621.682617,510.421021 
	C621.885254,509.855255 622.087952,509.289520 622.290649,508.723755 
	C605.090271,492.646271 587.889893,476.568756 570.039001,460.071564 
M457.246979,537.499939 
	C457.243988,562.479492 457.338654,587.459717 457.143646,612.437805 
	C457.110474,616.690979 458.497467,617.845154 462.549622,617.775391 
	C473.536713,617.586060 484.533325,617.625854 495.519287,617.875732 
	C499.225403,617.960022 500.445618,616.820129 500.437317,613.093262 
	C500.326843,563.467529 500.305420,513.841553 500.384949,464.215790 
	C500.390869,460.553345 499.357422,459.240234 495.578766,459.312378 
	C484.591797,459.522308 473.591949,459.603607 462.610229,459.285187 
	C458.010803,459.151825 457.122406,460.843445 457.155487,465.059174 
	C457.342255,488.871521 457.246399,512.686096 457.246979,537.499939 
z"/>
<path fill="#FBE906" opacity="1.000000" stroke="none" 
	d="
M253.238510,383.292725 
	C276.069458,380.368866 298.455902,377.501495 322.413513,374.432892 
	C320.565399,377.175415 319.702271,378.826691 318.503784,380.181274 
	C274.589417,429.815155 230.669968,479.444611 186.640228,528.976013 
	C183.900726,532.057800 182.697220,535.067688 182.728683,539.202637 
	C182.912430,563.355347 182.831161,587.510132 182.839249,611.664185 
	C182.839798,613.311218 182.839310,614.958252 182.839310,617.075806 
	C180.858963,617.249573 179.258682,617.502441 177.656815,617.512756 
	C164.497360,617.598022 151.335693,617.530273 138.179123,617.760925 
	C134.467636,617.825989 133.293488,616.629028 133.312744,612.907959 
	C133.675522,542.779053 133.927216,472.649658 134.215973,402.520416 
	C134.219986,401.545105 134.401535,400.570526 134.554169,399.062775 
	C174.009735,393.819305 213.401886,388.584290 253.238510,383.292725 
M211.868225,414.320251 
	C203.532043,417.155823 195.242264,420.140594 186.837112,422.754333 
	C183.420441,423.816833 182.715836,425.779297 182.740097,429.021881 
	C182.867157,446.004272 182.789444,462.988159 182.816986,479.971466 
	C182.819260,481.366364 183.076401,482.760895 183.261871,484.625580 
	C184.318634,483.946747 184.916855,483.684326 185.360062,483.260040 
	C199.058487,470.145355 213.143417,457.399658 226.251907,443.718628 
	C232.477264,437.221283 237.421616,429.262939 241.847382,421.351685 
	C245.166916,415.417847 242.139771,410.889069 235.305817,411.151428 
	C227.728958,411.442261 220.202881,413.055695 211.868225,414.320251 
z"/>
<path fill="#FBEA06" opacity="1.000000" stroke="none" 
	d="
M915.065186,511.154327 
	C903.848511,511.157715 893.121826,511.157715 882.395142,511.157715 
	C882.278625,511.681610 882.162109,512.205505 882.045593,512.729431 
	C883.831421,514.063049 885.559387,515.483582 887.411987,516.716919 
	C907.643799,530.185547 927.843323,543.704224 948.191956,556.994446 
	C951.599304,559.219910 952.395508,561.260498 951.038696,565.108337 
	C944.193481,584.521545 933.983765,601.245117 915.079285,611.154968 
	C895.904175,621.206604 877.605774,617.916443 860.336121,606.568176 
	C843.399719,595.439026 833.016418,579.174011 826.190796,560.421814 
	C826.036560,559.998047 826.171387,559.469116 826.171387,558.491150 
	C847.269592,558.491150 868.264404,558.491150 889.259216,558.491150 
	C889.395630,558.167297 889.532043,557.843506 889.668518,557.519653 
	C887.787537,556.032104 885.946411,554.490723 884.019470,553.065430 
	C866.081848,539.797546 848.200439,526.451660 830.121643,513.378784 
	C826.495728,510.756958 825.682373,508.554535 827.600708,504.396729 
	C836.192749,485.773438 848.110168,470.376678 868.032898,463.099548 
	C895.042114,453.233917 925.866760,464.240692 942.590271,489.690674 
	C946.714539,495.967010 949.639954,503.031097 953.116516,509.733063 
	C952.712158,510.205688 952.307861,510.678314 951.903564,511.150940 
	C939.787415,511.150940 927.671326,511.150940 915.065186,511.154327 
z"/>
<path fill="#F9E90A" opacity="1.000000" stroke="none" 
	d="
M341.711243,590.181030 
	C312.074127,574.747986 282.760864,559.494690 253.447601,544.241455 
	C253.530136,543.773499 253.612686,543.305542 253.695236,542.837585 
	C260.546417,542.247742 267.392456,541.588257 274.249664,541.079895 
	C306.820740,538.665100 339.382538,536.027161 371.328522,528.866516 
	C379.858917,526.954529 388.347290,524.075928 396.248749,520.354187 
	C404.305206,516.559387 404.385345,510.854218 397.181885,505.433929 
	C386.498749,497.395264 373.942688,493.215576 361.453491,489.106018 
	C328.042877,478.112305 293.849548,470.125122 259.439758,463.003662 
	C258.536713,462.816803 257.728973,462.169586 256.918915,460.591064 
	C264.925903,460.202393 272.935242,459.439056 280.939514,459.488678 
	C319.447388,459.727325 357.463623,463.441925 393.905487,476.987305 
	C406.602814,481.706848 418.646637,487.725250 428.948547,496.764740 
	C448.281097,513.728333 446.326691,532.781128 423.846405,545.402100 
	C409.508453,553.451782 393.717651,556.792419 377.653870,559.029541 
	C370.154449,560.073975 362.601868,560.736877 354.757782,562.547913 
	C384.371765,580.468201 413.985748,598.388489 443.599762,616.308777 
	C443.475861,616.715210 443.351959,617.121582 443.228088,617.527954 
	C441.839813,617.685303 440.453949,617.952942 439.062927,617.982727 
	C426.734039,618.247375 414.402954,618.662598 402.075470,618.581787 
	C398.587524,618.558960 394.788910,617.685303 391.680084,616.117004 
	C375.036285,607.720886 358.565613,598.981567 341.711243,590.181030 
z"/>
<path fill="#FBE907" opacity="1.000000" stroke="none" 
	d="
M646.064819,572.972168 
	C637.383789,578.555420 629.022095,583.968445 620.026672,589.791748 
	C619.760498,587.876099 619.446655,586.659241 619.444336,585.441833 
	C619.415588,570.116394 619.293640,554.788147 619.591431,539.468323 
	C619.634155,537.272034 621.203918,534.338135 623.001526,533.057068 
	C655.806030,509.679535 688.751221,486.499451 721.681213,463.298248 
	C722.714905,462.569946 723.905090,462.063782 725.570435,461.154907 
	C725.708069,463.324371 725.888245,464.910645 725.897705,466.497955 
	C726.186646,514.972046 726.461304,563.446228 726.730225,611.920410 
	C726.768066,618.737427 726.749207,618.673889 719.929993,618.645935 
	C707.796692,618.596252 695.663086,618.632019 683.059021,618.632019 
	C683.059021,595.219727 683.059021,572.805176 683.059021,548.989868 
	C670.188721,557.346191 658.286438,565.074097 646.064819,572.972168 
z"/>
<path fill="#FBE906" opacity="1.000000" stroke="none" 
	d="
M570.364258,460.281433 
	C587.889893,476.568756 605.090271,492.646271 622.290649,508.723755 
	C622.087952,509.289520 621.885254,509.855255 621.682617,510.421021 
	C605.046082,510.421021 588.409607,510.421021 571.124268,510.421021 
	C571.124268,546.445862 571.124268,581.466675 571.124268,616.884155 
	C556.565796,616.884155 542.660706,616.884155 528.143188,616.884155 
	C528.044189,615.199158 527.859619,613.446594 527.850159,611.693054 
	C527.587280,562.898376 527.412476,514.102966 526.985596,465.309753 
	C526.942749,460.407990 528.368347,459.023346 533.148621,459.228485 
	C545.434814,459.755768 557.740906,459.821442 570.364258,460.281433 
z"/>
<path fill="#FAE807" opacity="1.000000" stroke="none" 
	d="
M457.246887,536.999878 
	C457.246399,512.686096 457.342255,488.871521 457.155487,465.059174 
	C457.122406,460.843445 458.010803,459.151825 462.610229,459.285187 
	C473.591949,459.603607 484.591797,459.522308 495.578766,459.312378 
	C499.357422,459.240234 500.390869,460.553345 500.384949,464.215790 
	C500.305420,513.841553 500.326843,563.467529 500.437317,613.093262 
	C500.445618,616.820129 499.225403,617.960022 495.519287,617.875732 
	C484.533325,617.625854 473.536713,617.586060 462.549622,617.775391 
	C458.497467,617.845154 457.110474,616.690979 457.143646,612.437805 
	C457.338654,587.459717 457.243988,562.479492 457.246887,536.999878 
z"/>
<path fill="#D3DB5E" opacity="1.000000" stroke="none" 
	d="
M798.094421,616.606934 
	C792.973938,616.859558 787.855408,617.264587 782.732483,617.331482 
	C773.615967,617.450562 764.496826,617.364990 755.154541,617.364990 
	C755.037231,615.607056 754.875549,614.310059 754.875122,613.013123 
	C754.856628,563.253479 754.851379,513.493835 754.857300,463.734192 
	C754.857422,462.742096 755.008667,461.749969 755.710083,460.381622 
	C770.088440,460.005371 783.846069,460.005371 798.093445,460.005371 
	C798.093445,462.454163 798.093384,464.407135 798.093384,466.360107 
	C798.093689,516.442383 798.094055,566.524658 798.094421,616.606934 
M784.397583,461.756042 
	C776.567444,461.696777 768.716125,461.958435 760.916077,461.443359 
	C756.992920,461.184265 755.927307,462.277496 755.932800,465.976593 
	C756.004272,514.308350 756.032593,562.640442 755.906860,610.971985 
	C755.895569,615.316650 757.547363,616.306946 761.495422,616.207642 
	C770.656189,615.977173 779.826355,616.119019 788.992676,616.108398 
	C796.181458,616.100098 796.205139,616.099121 796.208984,609.139343 
	C796.234131,563.640747 796.248352,518.142090 796.265869,472.643494 
	C796.270020,461.809052 796.269592,461.809052 784.397583,461.756042 
z"/>
<path fill="#204532" opacity="1.000000" stroke="none" 
	d="
M798.383179,616.359741 
	C798.094055,566.524658 798.093689,516.442383 798.093384,466.360107 
	C798.093384,464.407135 798.093445,462.454163 798.093445,460.005371 
	C783.846069,460.005371 770.088440,460.005371 755.913269,459.943848 
	C756.875610,459.532776 758.253418,458.889923 759.635742,458.879974 
	C770.965515,458.798401 782.297791,458.944122 793.625610,458.776123 
	C797.629028,458.716766 799.279846,459.982239 799.268677,464.209778 
	C799.138367,513.530579 799.144836,562.851807 799.091064,612.172913 
	C799.089661,613.486267 798.817749,614.799377 798.383179,616.359741 
z"/>
<path fill="#064298" opacity="1.000000" stroke="none" 
	d="
M212.261459,414.206757 
	C220.202881,413.055695 227.728958,411.442261 235.305817,411.151428 
	C242.139771,410.889069 245.166916,415.417847 241.847382,421.351685 
	C237.421616,429.262939 232.477264,437.221283 226.251907,443.718628 
	C213.143417,457.399658 199.058487,470.145355 185.360062,483.260040 
	C184.916855,483.684326 184.318634,483.946747 183.261871,484.625580 
	C183.076401,482.760895 182.819260,481.366364 182.816986,479.971466 
	C182.789444,462.988159 182.867157,446.004272 182.740097,429.021881 
	C182.715836,425.779297 183.420441,423.816833 186.837112,422.754333 
	C195.242264,420.140594 203.532043,417.155823 212.261459,414.206757 
z"/>
<path fill="#FEEB02" opacity="1.000000" stroke="none" 
	d="
M784.878662,461.756165 
	C796.269592,461.809052 796.270020,461.809052 796.265869,472.643494 
	C796.248352,518.142090 796.234131,563.640747 796.208984,609.139343 
	C796.205139,616.099121 796.181458,616.100098 788.992676,616.108398 
	C779.826355,616.119019 770.656189,615.977173 761.495422,616.207642 
	C757.547363,616.306946 755.895569,615.316650 755.906860,610.971985 
	C756.032593,562.640442 756.004272,514.308350 755.932800,465.976593 
	C755.927307,462.277496 756.992920,461.184265 760.916077,461.443359 
	C768.716125,461.958435 776.567444,461.696777 784.878662,461.756165 
z"/>
</svg>