<?xml version="1.0" encoding="UTF-8"?>
<svg xmlns="http://www.w3.org/2000/svg" xmlns:xlink="http://www.w3.org/1999/xlink" x="0px" y="0px" viewBox="0 0 326.6 337.5" style="enable-background:new 0 0 326.6 337.5;" xml:space="preserve" width="326.6" height="337.5">
<style type="text/css">
	.st0{fill:#DC5C28;}
	.st1{fill:#C45224;}
	.st2{fill:#2C4369;}
	.st3{fill:#FFFFFF;}
</style>
<g id="BACKGROUND">
</g>
<g id="OBJECTS">
	<g>
		
			<ellipse transform="matrix(0.7071 -0.7071 0.7071 0.7071 -77.6807 167.7363)" class="st0" cx="163.6" cy="177.6" rx="80.6" ry="80.6"></ellipse>
		
			<ellipse transform="matrix(0.7071 -0.7071 0.7071 0.7071 -80.5116 174.5708)" class="st1" cx="170.5" cy="184.5" rx="71.6" ry="71.6"></ellipse>
		<g>
			<path class="st2" d="M243.6,168c-0.4,2.6-1.3,6.8-8.1,14.5c-4.6,5.3-10.4,10.6-18.9,15.6c-0.3-2.7-0.4-5.4-0.4-8.1     c0-9.1,1.5-18.5,3.1-27.7c0.3-1.4,0.6-3,0.9-4.7c1.8-8.8,4.5-21.1,1.4-32.5c0,0,0-0.1,0-0.1c-1-3.2-2.4-5.5-4-7.6     c-3.2-2.9-6.6-5.6-10.3-7.9c5.3,5.4,8,11.2,9.4,17.2c2.4,10.5,0.2,21.2-1.6,29.8c-0.4,1.7-0.7,3.3-1,4.8     c-1.6,8.7-3.1,18-3.2,27.7c0,4.1,0.2,7.9,0.7,11.6c-4.7,2.3-10,4.5-16.3,6.4c-1.5-9.3-3.8-20.1-7.1-32.8     c-11.5-43.7-25.5-63.7-36-72.9c-2-1.8-3.8-2.8-5.3-3.4c-1.6,0.3-3.1,0.7-4.6,1.1c1.8,1,3.9,2.7,6.4,5.2     c8.8,9,24.1,31.6,34.5,71.3c3.4,12.7,5.7,23.7,7.2,32.9c-0.7,0.2-1.4,0.4-2.1,0.6c-6.5,1.7-12.9,3-19.1,4.1     c-1-4.8-2.6-9.6-4.8-14.5c-6.8-15.4-21.8-25.2-39.1-36.5c-4.9-3.2-10-6.5-15.1-10.2c-7-4.9-12.7-12.6-14.6-19.1     c-1.2,1.8-2.3,3.7-3.4,5.6c0.5,1.3,1.2,2.7,1.8,3.6c3.2,5.4,7.7,10.2,13.3,14.1c5.2,3.7,10.3,7,15.3,10.3     c16.6,10.9,31,20.3,37.2,34.3c2,4.4,3.4,8.9,4.4,13.2c-28.5,4.1-53.4,1.6-69.8-7.4c-0.9-0.5-1.8-1-2.6-1.5     c-2.1-1.3-4.1-2.8-5.8-4.3c0.5,1.6,1,3.1,1.6,4.7c2.5,3.4,5.9,6.2,10.5,8.6c2.6,1.1,5.4,2.1,8.3,2.9c1,0.3,2,0.6,3,0.8     c7.4,1.8,15.6,2.9,24.5,3.2c9.8,0.3,20.4-0.3,31.3-1.9c0.3,2.2,0.4,4.3,0.4,6.4c0,0,0,0,0,0c0,6.4-0.8,10.9-2.7,14.3     c-2.4,4.1-12.6,10.5-21.8,12.2c-2.4,0.4-4.5,0.8-6.6,0.8c1.7,0.6,3.4,1.2,5.1,1.8c2.9,0.1,5.9-0.3,8.1-0.8     c11.1-2.7,16.5-8.4,17.9-10.1c3.3-4,5.2-10.5,5.2-18.2c0,0,0,0,0,0c0-2.3-0.2-4.7-0.5-7.2c6.4-1.1,12.9-2.5,19.5-4.2     c0.5-0.1,1.1-0.3,1.6-0.4c2.3,16.1,2,26.5,0.8,32.6c-0.7,3.7-1.8,6.1-2.9,7.6c1.6-0.5,3.2-1.1,4.7-1.8c1.2-1.7,2-3.7,2.4-5.5     c1.6-7.4,2-18.3-0.1-34.3c5.9-1.9,11.4-4.1,16.4-6.6c0.8,3.4,1.8,6.7,3.1,9.7c0.5,1.1,1,2.2,1.5,3.3c1,2,2.1,3.5,3.4,4.7     c1.4,1.1,3.1,1.8,4.8,1.9c1.1,0.1,2.2,0,3.2-0.4c0.9-1.3,1.8-2.6,2.7-3.9c-1.4,0.4-2.6,0.2-3.9,0c-2-0.3-4-1.6-5.6-4.7     c-0.5-0.9-0.9-1.8-1.3-2.7c-1.5-3.4-2.5-6.9-3.3-10.5c1.4-0.8,2.7-1.6,3.9-2.5c7-4.7,12.8-10.2,17.2-16.4c3.3-4.7,4.8-9,5.4-12.4     C243.9,170.5,243.7,169.3,243.6,168z"></path>
		</g>
		<g>
			<path class="st2" d="M163.3,260.4c-45.8,0-83.1-37.3-83.1-83.1c0-45.8,37.3-83.1,83.1-83.1c45.8,0,83.1,37.3,83.1,83.1     C246.4,223.2,209.2,260.4,163.3,260.4z M163.3,98.8c-43.3,0-78.5,35.2-78.5,78.5c0,43.3,35.2,78.5,78.5,78.5     c43.3,0,78.5-35.2,78.5-78.5C241.8,134,206.6,98.8,163.3,98.8z"></path>
		</g>
	</g>
	<rect x="44.5" y="183" class="st3" width="237.6" height="61.4"></rect>
	<polygon class="st0" points="165,309.1 168.7,319.6 179.9,319.9 171,326.8 174.2,337.5 165,331.2 155.7,337.5 158.9,326.8    150,319.9 161.2,319.6  "></polygon>
	<polygon class="st0" points="138,308.9 140.1,315.1 146.7,315.3 141.5,319.2 143.4,325.5 138,321.8 132.6,325.5 134.4,319.2    129.2,315.3 135.8,315.1  "></polygon>
	<polygon class="st0" points="192,310 194.2,316.1 200.7,316.3 195.5,320.3 197.4,326.6 192,322.9 186.6,326.6 188.4,320.3    183.3,316.3 189.8,316.1  "></polygon>
	<g>
		<g>
			<path class="st0" d="M66.4,177.8c0.3-53.5,43.8-96.8,97.4-96.8c53.6,0,97,43.3,97.4,96.8H281c-0.3-64.4-52.7-116.6-117.2-116.6     c-64.5,0-116.9,52.1-117.2,116.6H66.4z"></path>
			<path class="st0" d="M222.8,255.9c-16.4,12.5-36.8,19.9-59,19.9c-22.2,0-42.6-7.4-59-19.9H75.8c21.5,24.4,52.9,39.7,87.9,39.7     c35,0,66.5-15.4,87.9-39.7H222.8z"></path>
		</g>
	</g>
	<g>
		<g>
			<path class="st3" d="M77.6,60.3c-0.5,1.3-1,2.5-1.6,3.6c0,0.1,0.1,0.1,0.1,0.1c1.2-0.2,2.5-0.4,3.9-0.4c1.6-0.1,3.2,0.1,4.7,0.5     c1.9-0.8,4.1-1.9,6.7-3.5c8.3-5.3,17.8-15.9,18-15.9c0.1-0.1-14.9-0.4-24.4,5.5c-2.5,1.5-4.5,3-6,4.5     C78.8,56.5,78.3,58.4,77.6,60.3z"></path>
			<path class="st3" d="M61.6,73.1c0.7,0.1,1.4,0.1,2.2,0c0.6-0.1,1.2-0.3,1.8-0.5c-0.3,0.6-0.5,1.1-0.6,1.7     c-0.2,0.8-0.2,1.5-0.1,2.2c5.2-0.7,10.1,1.4,13.3,3.2c7.5-1.9,16.7-6.7,16.8-6.7c0,0-7-7.5-15.7-7.2c-2.9,0.1-5.5,0.7-7.5,1.6     c1.3-1.8,2.4-4.1,3.5-6.9c3.1-8.2-0.1-17.8-0.1-17.9C75,42.5,64.3,50.9,60.4,59C61.5,62.6,62.6,67.9,61.6,73.1z"></path>
			<path class="st3" d="M56.8,81.2c0.9-1.9,1.7-4.3,2.3-7.2c1.8-8.4-2.9-17.5-2.9-17.5c-0.1-0.1-9.1,9.4-11.7,17.9     c1.6,3.4,3.4,8.4,3.2,13.6c0.7,0.1,1.4,0,2.1-0.2c0.6-0.2,1.1-0.4,1.7-0.7c-0.2,0.6-0.3,1.2-0.3,1.8c-0.1,0.8,0,1.5,0.2,2.1     c5-1.3,10.1,0.1,13.4,1.5c7-2.8,15.2-8.6,15.3-8.6c0,0-8-6.5-16.3-5.1C61,79.3,58.7,80.1,56.8,81.2z"></path>
			<path class="st3" d="M44.3,96.7c0.6-2,1.1-4.5,1.2-7.4c0.5-8.4-5.4-16.8-5.4-16.8c-0.1-0.1-7.4,10.4-8.8,19     c2.1,3.1,4.6,7.8,5.1,13c0.7,0,1.4-0.2,2.1-0.5c0.5-0.2,1-0.5,1.5-0.9c-0.1,0.6-0.1,1.2-0.1,1.8c0.1,0.8,0.2,1.5,0.5,2.1     c4.7-1.9,9.9-1.2,13.4-0.2c6.5-3.6,13.6-10.4,13.7-10.3c0,0-8.8-5.4-16.7-3C48.2,94.3,46,95.4,44.3,96.7z"></path>
			<path class="st3" d="M34.3,113.5c0.4-2.1,0.4-4.5,0.2-7.4c-0.7-8.4-7.7-15.8-7.7-15.8c-0.1-0.1-5.8,11.1-6,19.8     c2.5,2.8,5.6,7.1,6.8,12.1c0.7-0.1,1.3-0.4,2-0.8c0.5-0.3,1-0.7,1.4-1.1c0,0.6,0,1.2,0.1,1.8c0.2,0.8,0.4,1.4,0.8,2     c4.4-2.5,9.6-2.4,13.2-1.9c5.9-4.4,11.9-11.9,12-11.9c0,0-9.4-4.2-16.9-0.9C37.7,110.6,35.7,112,34.3,113.5z"></path>
			<path class="st3" d="M26.6,131.3c0.1-2.1-0.2-4.5-0.8-7.3c-1.8-8.1-9.7-14.6-9.8-14.6c-0.1-0.1-4.2,11.7-3.2,20.3     c2.8,2.4,6.5,6.3,8.3,11.1c0.6-0.2,1.3-0.5,1.9-1c0.5-0.4,0.9-0.8,1.2-1.2c0.1,0.6,0.2,1.2,0.4,1.7c0.3,0.7,0.6,1.3,1.1,1.8     c4.1-3,9.2-3.6,12.8-3.6c5.3-5.1,10.2-13.2,10.3-13.2c0,0-9.8-3-16.8,1.3C29.6,128,27.8,129.6,26.6,131.3z"></path>
			<path class="st3" d="M21.3,149.8c-0.2-2.1-0.7-4.4-1.7-7.1C16.7,134.9,8,129.5,8,129.6c-0.1,0-2.7,12.1-0.6,20.4     c3.1,2,7.2,5.4,9.7,9.9c0.6-0.3,1.2-0.7,1.7-1.2c0.4-0.4,0.8-0.9,1.1-1.4c0.1,0.6,0.3,1.1,0.6,1.6c0.3,0.7,0.8,1.2,1.3,1.7     c3.6-3.5,8.7-4.8,12.3-5.2c4.6-5.7,8.4-14.4,8.4-14.4c0,0-10.1-1.7-16.4,3.4C23.9,146.2,22.3,148,21.3,149.8z"></path>
			<path class="st3" d="M18.4,168.8c-0.5-2-1.3-4.3-2.6-6.8c-3.8-7.3-13.1-11.5-13.2-11.5c-0.1,0-1.1,12.3,2,20.3     c3.3,1.6,7.8,4.4,10.8,8.5c0.6-0.4,1.1-0.8,1.5-1.4c0.3-0.5,0.6-1,0.9-1.5c0.2,0.6,0.5,1.1,0.8,1.6c0.4,0.6,0.9,1.1,1.5,1.5     c3.2-3.9,8-5.8,11.5-6.7c3.8-6.2,6.5-15.3,6.6-15.3c0,0-10.2-0.4-15.8,5.5C20.5,164.9,19.2,166.9,18.4,168.8z"></path>
			<path class="st3" d="M18,188c-0.7-2-1.8-4.1-3.5-6.4c-4.7-6.8-14.5-9.7-14.5-9.7c0,0,0.3,10.6,3.8,18.2c3.6,1.2,9.1,3.5,12.8,7.8     c0.1,0.1,0.2,0.3,0.3,0.4c0.3-0.3,0.6-0.7,0.8-1.1c0.3-0.5,0.5-1,0.7-1.6c0.3,0.5,0.6,1,1,1.4c0.3,0.4,0.7,0.7,1,0.9     c0.1-0.1,0.2-0.3,0.2-0.4c2.8-4.9,8.1-7.5,11.6-8.7c2.6-6.5,3.9-14.6,4-14.6c0,0-10.2,0.9-15,7.5C19.6,183.8,18.5,186,18,188z"></path>
			<path class="st3" d="M19.7,205.8c-0.9-1.9-2.3-3.8-4.2-6C10,193.7,0,192,0,192c-0.1,0,1.6,10.5,5.9,17.6     c3.7,0.7,9.4,2.4,13.6,6.2c0.1,0.1,0.2,0.2,0.4,0.4c0.3-0.4,0.5-0.8,0.7-1.2c0.2-0.5,0.4-1.1,0.5-1.7c0.3,0.5,0.7,0.9,1.1,1.3     c0.4,0.3,0.7,0.6,1.1,0.8c0.1-0.2,0.1-0.3,0.2-0.5c2.2-5.2,7.2-8.4,10.5-10.1c1.8-6.8,2.2-15,2.2-15c0,0-10,2.2-14.1,9.2     C20.8,201.5,20,203.8,19.7,205.8z"></path>
			<path class="st3" d="M23.5,223.4c-1.1-1.7-2.7-3.5-4.9-5.4c-6.2-5.5-16.3-6-16.3-6c-0.1,0,2.8,10.3,7.9,16.8     c3.8,0.3,9.7,1.3,14.3,4.5c0.1,0.1,0.3,0.2,0.4,0.3c0.2-0.4,0.4-0.8,0.5-1.3c0.2-0.6,0.3-1.1,0.3-1.7c0.4,0.4,0.8,0.8,1.3,1.2     c0.4,0.3,0.8,0.5,1.2,0.6c0-0.2,0.1-0.3,0.1-0.5c1.6-5.4,6.1-9.2,9.2-11.3c1-7,0.4-15.1,0.5-15.2c0,0-9.7,3.4-12.9,10.9     C24.1,218.9,23.6,221.3,23.5,223.4z"></path>
			<path class="st3" d="M29.4,240.4c-1.3-1.6-3.1-3.2-5.5-4.8c-6.8-4.7-16.9-4-16.9-4c-0.1,0,4,9.9,9.9,15.8     c3.8-0.2,9.8,0.1,14.8,2.8c0.2,0.1,0.3,0.2,0.4,0.3c0.2-0.4,0.3-0.9,0.4-1.3c0.1-0.6,0.1-1.2,0.1-1.8c0.4,0.4,0.9,0.7,1.4,1     c0.4,0.2,0.9,0.4,1.3,0.5c0-0.2,0-0.3,0.1-0.5c0.9-5.6,4.9-10,7.7-12.4c0.1-7.1-1.4-15.2-1.4-15.2c0,0-9.2,4.5-11.5,12.4     C29.4,235.9,29.2,238.3,29.4,240.4z"></path>
			<path class="st3" d="M37.4,256.7c-1.5-1.4-3.5-2.8-6.1-4.2c-7.3-3.9-17.3-2-17.3-1.9c-0.1,0,5.2,9.4,11.8,14.6     c3.8-0.6,9.7-1.1,15.1,1c0.2,0.1,0.3,0.1,0.5,0.2c0.1-0.4,0.2-0.9,0.2-1.4c0-0.6,0-1.2-0.2-1.8c0.5,0.3,1,0.6,1.6,0.8     c0.5,0.2,0.9,0.3,1.3,0.3c0-0.2,0-0.3,0-0.5c0.2-5.7,3.6-10.5,6.1-13.3c-0.8-7.1-3.3-14.9-3.3-15c0,0-8.6,5.6-9.9,13.7     C36.9,252.2,37,254.6,37.4,256.7z"></path>
			<path class="st3" d="M47.5,272c-1.7-1.2-3.9-2.4-6.6-3.4c-7.8-3-17.5,0.1-17.5,0.1c-0.2,0.1,9.8,12.9,18.5,15.5     c5,1.6,8.2,1.2,9.7-0.2c1.1-1,1.4-2.4,1.3-4.1c-0.1-0.6-0.2-1.2-0.4-1.8c0.5,0.3,1.1,0.5,1.7,0.7c1.7,0.4,3.1,0.2,4.2-0.8     c1.6-1.4,2.3-4.4,2.1-9.1c-0.5-7.9-6-19-5.9-19.1c0,0-7.9,6.6-8.1,14.9C46.4,267.6,46.8,270,47.5,272z"></path>
			<path class="st3" d="M108.7,321.2c0.5-1.1,0.9-2.3,1.4-3.4c-20.3-8.4-37.2-20.2-50.7-34.3c-0.9,0.8-1.8,1.7-2.7,2.5     C70.6,300.5,87.9,312.6,108.7,321.2z"></path>
		</g>
	</g>
	<g>
		<g>
			<path class="st3" d="M249,60.3c0.5,1.3,1,2.5,1.6,3.6c0,0.1-0.1,0.1-0.1,0.1c-1.2-0.2-2.5-0.4-3.9-0.4c-1.6-0.1-3.2,0.1-4.7,0.5     c-1.9-0.8-4.1-1.9-6.7-3.5c-8.3-5.3-17.8-15.9-18-15.9c-0.1-0.1,14.9-0.4,24.4,5.5c2.5,1.5,4.5,3,6,4.5     C247.9,56.5,248.3,58.4,249,60.3z"></path>
			<path class="st3" d="M265.1,73.1c-0.7,0.1-1.4,0.1-2.2,0c-0.6-0.1-1.2-0.3-1.8-0.5c0.3,0.6,0.5,1.1,0.6,1.7     c0.2,0.8,0.2,1.5,0.1,2.2c-5.2-0.7-10.1,1.4-13.3,3.2c-7.5-1.9-16.7-6.7-16.8-6.7c0,0,7-7.5,15.7-7.2c2.9,0.1,5.5,0.7,7.5,1.6     c-1.3-1.8-2.4-4.1-3.5-6.9c-3.1-8.2,0.1-17.8,0.1-17.9c0.1-0.1,10.7,8.3,14.6,16.5C265.1,62.6,264.1,67.9,265.1,73.1z"></path>
			<path class="st3" d="M269.8,81.2c-0.9-1.9-1.7-4.3-2.3-7.2c-1.8-8.4,2.9-17.5,2.9-17.5c0.1-0.1,9.1,9.4,11.7,17.9     c-1.6,3.4-3.4,8.4-3.2,13.6c-0.7,0.1-1.4,0-2.1-0.2c-0.6-0.2-1.1-0.4-1.7-0.7c0.2,0.6,0.3,1.2,0.4,1.8c0.1,0.8,0,1.5-0.2,2.1     c-5-1.3-10.1,0.1-13.4,1.5c-7-2.8-15.2-8.6-15.3-8.6c0,0,8-6.5,16.3-5.1C265.6,79.3,268,80.1,269.8,81.2z"></path>
			<path class="st3" d="M282.3,96.7c-0.6-2-1.1-4.5-1.2-7.4c-0.5-8.4,5.4-16.8,5.4-16.8c0.1-0.1,7.4,10.4,8.8,19     c-2.1,3.1-4.6,7.8-5.1,13c-0.7,0-1.4-0.2-2.1-0.5c-0.5-0.2-1-0.5-1.5-0.9c0.1,0.6,0.1,1.2,0.1,1.8c-0.1,0.8-0.2,1.5-0.5,2.1     c-4.7-1.9-9.9-1.2-13.4-0.2c-6.5-3.6-13.6-10.4-13.7-10.3c0,0,8.8-5.4,16.7-3C278.5,94.3,280.6,95.4,282.3,96.7z"></path>
			<path class="st3" d="M292.4,113.5c-0.4-2.1-0.4-4.5-0.2-7.4c0.7-8.4,7.7-15.8,7.7-15.8c0.1-0.1,5.8,11.1,6,19.8     c-2.5,2.8-5.6,7.1-6.8,12.1c-0.7-0.1-1.3-0.4-2-0.8c-0.5-0.3-1-0.7-1.4-1.1c0,0.6,0,1.2-0.1,1.8c-0.2,0.8-0.4,1.4-0.8,2     c-4.4-2.5-9.6-2.4-13.2-1.9c-5.9-4.4-11.9-11.9-12-11.9c0,0,9.4-4.2,16.9-0.9C288.9,110.6,290.9,112,292.4,113.5z"></path>
			<path class="st3" d="M300.1,131.3c-0.1-2.1,0.2-4.5,0.8-7.3c1.8-8.1,9.7-14.6,9.8-14.6c0.1-0.1,4.2,11.7,3.2,20.3     c-2.8,2.4-6.5,6.3-8.3,11.1c-0.6-0.2-1.3-0.5-1.9-1c-0.5-0.4-0.9-0.8-1.2-1.2c-0.1,0.6-0.2,1.2-0.4,1.7c-0.3,0.7-0.6,1.3-1.1,1.8     c-4.1-3-9.2-3.6-12.8-3.6c-5.3-5.1-10.2-13.2-10.3-13.2c0,0,9.8-3,16.8,1.3C297,128,298.8,129.6,300.1,131.3z"></path>
			<path class="st3" d="M305.3,149.8c0.2-2.1,0.7-4.4,1.7-7.1c2.9-7.8,11.6-13.1,11.6-13.1c0.1,0,2.7,12.1,0.6,20.4     c-3.1,2-7.2,5.4-9.7,9.9c-0.6-0.3-1.2-0.7-1.7-1.2c-0.4-0.4-0.8-0.9-1.1-1.4c-0.1,0.6-0.3,1.1-0.6,1.6c-0.3,0.7-0.8,1.2-1.3,1.7     c-3.6-3.5-8.7-4.8-12.3-5.2c-4.6-5.7-8.4-14.4-8.4-14.4c0,0,10.1-1.7,16.4,3.4C302.8,146.2,304.3,148,305.3,149.8z"></path>
			<path class="st3" d="M308.2,168.8c0.5-2,1.3-4.3,2.6-6.8c3.8-7.3,13.1-11.5,13.2-11.5c0.1,0,1.1,12.3-2,20.3     c-3.3,1.6-7.8,4.4-10.8,8.5c-0.6-0.4-1.1-0.8-1.5-1.4c-0.3-0.5-0.6-1-0.9-1.5c-0.2,0.6-0.5,1.1-0.8,1.6c-0.4,0.6-0.9,1.1-1.5,1.5     c-3.2-3.9-8-5.8-11.5-6.7c-3.8-6.2-6.5-15.3-6.6-15.3c0,0,10.2-0.4,15.8,5.5C306.1,164.9,307.4,166.9,308.2,168.8z"></path>
			<path class="st3" d="M308.7,188c0.7-2,1.8-4.1,3.5-6.4c4.7-6.8,14.5-9.7,14.5-9.7c0.1,0-0.3,10.6-3.8,18.2     c-3.6,1.2-9.1,3.5-12.8,7.8c-0.1,0.1-0.2,0.3-0.3,0.4c-0.3-0.3-0.6-0.7-0.8-1.1c-0.3-0.5-0.5-1-0.7-1.6c-0.3,0.5-0.6,1-1,1.4     c-0.3,0.4-0.7,0.7-1,0.9c-0.1-0.1-0.1-0.3-0.2-0.4c-2.8-4.9-8.1-7.5-11.6-8.7c-2.6-6.5-3.9-14.6-4-14.6c0,0,10.2,0.9,15,7.5     C307.1,183.8,308.1,186,308.7,188z"></path>
			<path class="st3" d="M306.9,205.8c0.9-1.9,2.3-3.8,4.2-6c5.5-6.2,15.5-7.9,15.5-7.9c0.1,0-1.6,10.5-5.9,17.6     c-3.7,0.7-9.4,2.4-13.6,6.2c-0.1,0.1-0.2,0.2-0.4,0.4c-0.3-0.4-0.5-0.8-0.7-1.2c-0.2-0.5-0.4-1.1-0.5-1.7     c-0.3,0.5-0.7,0.9-1.1,1.3c-0.4,0.3-0.7,0.6-1.1,0.8c-0.1-0.2-0.1-0.3-0.2-0.5c-2.2-5.2-7.2-8.4-10.5-10.1     c-1.8-6.8-2.2-15-2.2-15c0,0,10,2.2,14.1,9.2C305.9,201.5,306.6,203.8,306.9,205.8z"></path>
			<path class="st3" d="M303.1,223.4c1.1-1.7,2.7-3.5,4.9-5.4c6.2-5.5,16.3-6,16.3-6c0.1,0-2.8,10.3-7.9,16.8     c-3.8,0.3-9.7,1.3-14.3,4.5c-0.1,0.1-0.3,0.2-0.4,0.3c-0.2-0.4-0.4-0.8-0.5-1.3c-0.2-0.6-0.3-1.1-0.3-1.7     c-0.4,0.4-0.8,0.8-1.3,1.2c-0.4,0.3-0.8,0.5-1.2,0.6c0-0.2-0.1-0.3-0.1-0.5c-1.6-5.4-6.1-9.2-9.2-11.3c-1-7-0.4-15.1-0.5-15.2     c0,0,9.7,3.4,12.9,10.9C302.6,218.9,303.1,221.3,303.1,223.4z"></path>
			<path class="st3" d="M297.2,240.4c1.3-1.6,3.1-3.2,5.5-4.8c6.8-4.7,16.9-4,16.9-4c0.1,0-4,9.9-9.9,15.8     c-3.8-0.2-9.8,0.1-14.8,2.8c-0.2,0.1-0.3,0.2-0.4,0.3c-0.2-0.4-0.3-0.9-0.4-1.3c-0.1-0.6-0.1-1.2-0.1-1.8c-0.4,0.4-0.9,0.7-1.4,1     c-0.4,0.2-0.9,0.4-1.3,0.5c0-0.2,0-0.3-0.1-0.5c-0.9-5.6-4.9-10-7.7-12.4c-0.1-7.1,1.4-15.2,1.4-15.2c0,0,9.2,4.5,11.5,12.4     C297.2,235.9,297.4,238.3,297.2,240.4z"></path>
			<path class="st3" d="M289.2,256.7c1.5-1.4,3.5-2.8,6.1-4.2c7.3-3.9,17.3-2,17.3-1.9c0.1,0-5.2,9.4-11.8,14.6     c-3.8-0.6-9.7-1.1-15.1,1c-0.2,0.1-0.3,0.1-0.5,0.2c-0.1-0.4-0.2-0.9-0.2-1.4c0-0.6,0-1.2,0.2-1.8c-0.5,0.3-1,0.6-1.6,0.8     c-0.5,0.2-0.9,0.3-1.3,0.3c0-0.2,0-0.3,0-0.5c-0.2-5.7-3.6-10.5-6.1-13.3c0.8-7.1,3.3-14.9,3.3-15c0,0,8.6,5.6,9.9,13.7     C289.8,252.2,289.7,254.6,289.2,256.7z"></path>
			<path class="st3" d="M279.1,272c1.7-1.2,3.9-2.4,6.6-3.4c7.8-3,17.5,0.1,17.5,0.1c0.2,0.1-9.8,12.9-18.5,15.5     c-5,1.6-8.2,1.2-9.7-0.2c-1.1-1-1.4-2.4-1.3-4.1c0.1-0.6,0.2-1.2,0.4-1.8c-0.5,0.3-1.1,0.5-1.7,0.7c-1.7,0.4-3.1,0.2-4.2-0.8     c-1.6-1.4-2.3-4.4-2.1-9.1c0.5-7.9,6-19,5.9-19.1c0,0,7.9,6.6,8.1,14.9C280.3,267.6,279.8,270,279.1,272z"></path>
			<path class="st3" d="M217.9,321.2c-0.5-1.1-0.9-2.3-1.4-3.4c20.3-8.4,37.2-20.2,50.7-34.3c0.9,0.8,1.8,1.7,2.7,2.5     C256,300.5,238.7,312.6,217.9,321.2z"></path>
		</g>
	</g>
	<rect x="65" y="228.9" class="st2" width="58.7" height="2.1"></rect>
	<rect x="200.7" y="228.9" class="st2" width="58.6" height="2.1"></rect>
	<path class="st3" d="M128.9,5.4C128.9,5.4,128.9,5.4,128.9,5.4c3.5,16.1,7,32.2,10.4,48.2c14.3-4.6,33.1-5,48.6,0   c3.5-16.1,7-32.2,10.4-48.3c8.2-4.7-8.5-9.1-1.6-0.1c-8.6,29.2-29.5,27.5-31.5-0.3c5.5-5.5-8.7-7.7-3,0.1   c-3.5,33.6-25.9,23.2-31.6-0.2C136-3,119.5,0.1,128.9,5.4z M184.3,34.6c6-0.3,6.6,13.7-1.9,11C178.2,43.4,178.5,35.5,184.3,34.6z    M163.6,34.2c7,0,8.5,11.4,0,12.2C156.6,46.4,155.1,35,163.6,34.2z M143,34.6c6-0.3,6.6,13.7-1.9,11   C136.8,43.4,137.1,35.5,143,34.6z"></path>
	<g>
		<path class="st2" d="M55,197v5.2h-6.6v-11.3h22.1v11.3h-6.6V197H63v12.6h1.8v6.1H54v-6.1h1.7V197H55z M56.7,196.1v14.5h-1.8v4.2    h8.9v-4.2H62v-14.5h2.7v5.2h4.7v-9.3H49.3v9.3H54v-5.2H56.7z M53.4,195.4v5.2h-3.5v-8.1h18.9v8.1h-3.5v-5.2h-3.9v15.7h1.8v2.9    h-7.6v-2.9h1.7v-15.7H53.4z"></path>
		<path class="st2" d="M91,206.5v9.1H72.8v-6.1h1.5V197h-1.5v-6.1H91v9.1h-6.9v-3h-2.7v3.5h6.2v5.5h-6.2v3.5h2.7v-3H91z M73.7,210.5    v4.2h16.4v-7.2H85v3h-4.6v-5.4h6.2v-3.6h-6.2V196H85v3h5.1v-7.2H73.7v4.1h1.6v14.5H73.7z M75.9,211.2v-15.7h-1.5v-2.9h15.1v5.9    h-3.8v-3h-5.8v6.7h6.1v2.3h-6.1v6.7h5.8v-3.1h3.8v6H74.3v-2.9H75.9z"></path>
		<path class="st2" d="M102.1,209.2l-0.1,0.4h1.2v6.1H93.1v-6.1H95l3.1-12.6h-1.6v-6.1H112v6.1h-1.6l3.1,12.6h1.9v6.1h-10.1v-6.1    h1.2l-0.1-0.4H102.1z M107.1,208.3l0.5,2.2h-1.5v4.2h8.3v-4.2h-1.7l-3.5-14.5h1.9v-4.2H97.4v4.2h1.9l-3.5,14.5h-1.7v4.2h8.3v-4.2    h-1.5l0.5-2.2H107.1z M100.8,207.6l-0.7,3.5h1.6v2.9h-7v-2.9h1.6l3.8-15.7h-2v-2.9h12.4v2.9h-2l3.8,15.7h1.6v2.9h-7v-2.9h1.6    l-0.7-3.5H100.8z M107.1,205.3l-2.2-9.9h-1.4l-2.2,9.9H107.1z M102.1,204.7l1.9-8.6h0.4l1.9,8.6H102.1z M105.2,203.7l-1-4.9    l-1,4.9H105.2z"></path>
		<path class="st2" d="M130.7,212.6h-1.5l-3.5-7.2v4.2h1.5v6.1h-9.9v-6.1h1.5V197h-1.5v-6.1h8.6l4,8.7l4.1-8.7h8.6v6.1h-1.5v12.6    h1.5v6.1h-10v-6.1h1.5v-4.2L130.7,212.6z M135.2,201.2v9.3h-1.5v4.2h8.1v-4.2h-1.5v-14.5h1.5v-4.2h-7.1l-4.7,10l-4.7-10h-7.1v4.2    h1.6v14.5h-1.6v4.2h8.1v-4.2h-1.6v-9.3l5.1,10.4h0.3L135.2,201.2z M130,210.5l-5.8-12v12.6h1.5v2.9h-6.8v-2.9h1.5v-15.7h-1.5v-2.9    h6.1l5.1,10.8l5.1-10.8h6.1v2.9h-1.5v15.7h1.5v2.9h-6.8v-2.9h1.6v-12.6L130,210.5z"></path>
		<path class="st2" d="M159.9,215.6c-0.5,0-1,0-1.5-0.1s-1-0.2-1.4-0.6c-0.4,0.3-0.8,0.5-1.4,0.5c-0.6,0.1-1.2,0.1-2,0.1h-2.1V206    h6.4l-4.5-2.9c-0.7-0.5-1.2-0.9-1.5-1.4c-0.2-0.5-0.4-1.1-0.4-2v-4.5c0-0.6,0.1-1.2,0.3-1.7c0.2-0.5,0.5-1,0.9-1.4    c0.4-0.4,0.9-0.7,1.4-1c0.5-0.2,1.1-0.4,1.8-0.4h4.7c0.5,0,1,0,1.6,0.1s1.1,0.2,1.5,0.5c0.4-0.3,0.9-0.4,1.4-0.5    c0.5-0.1,1.2-0.1,2-0.1h2.1v9.7h-6.7l4.8,2.9c0.8,0.5,1.3,0.9,1.5,1.4c0.2,0.5,0.4,1.1,0.4,1.9v4.4c0,0.6-0.1,1.2-0.4,1.7    c-0.2,0.5-0.6,1-1,1.4c-0.4,0.4-0.9,0.7-1.4,1c-0.5,0.2-1.1,0.4-1.7,0.4H159.9z M164.8,214.7c0.5,0,0.9-0.1,1.3-0.3    c0.4-0.2,0.8-0.4,1.1-0.7c0.3-0.3,0.6-0.7,0.7-1.1c0.2-0.4,0.3-0.9,0.3-1.3v-4.4c0-0.6-0.1-1.1-0.3-1.5s-0.5-0.7-1.1-1.1l-8.9-5.4    c-0.2-0.1-0.2-0.3-0.2-0.5v-1.7c0-0.2,0.1-0.3,0.2-0.5c0.1-0.1,0.3-0.2,0.4-0.2h4.1c0.2,0,0.4,0.1,0.5,0.2    c0.1,0.1,0.2,0.3,0.2,0.5v2.9h5.2v-7.8h-1.2c-0.3,0-0.7,0-1,0c-0.4,0-0.7,0.1-1,0.1c-0.3,0.1-0.6,0.2-0.9,0.3    c-0.2,0.1-0.4,0.3-0.5,0.5c-0.2-0.2-0.4-0.4-0.6-0.6c-0.3-0.1-0.5-0.2-0.8-0.3c-0.3-0.1-0.6-0.1-0.9-0.1c-0.3,0-0.6,0-0.8,0h-4.6    c-0.5,0-1,0.1-1.4,0.3c-0.4,0.2-0.8,0.4-1.1,0.7s-0.5,0.7-0.7,1.1s-0.3,0.9-0.3,1.3v4.5c0,0.6,0.1,1.1,0.3,1.5    c0.2,0.4,0.6,0.7,1.1,1.1l8.3,5.2c0.1,0,0.2,0.1,0.2,0.2c0,0.1,0.1,0.2,0.1,0.3v1.8c0,0.2-0.1,0.3-0.2,0.5    c-0.1,0.1-0.3,0.2-0.4,0.2h-3.6c-0.2,0-0.3-0.1-0.4-0.2c-0.1-0.1-0.2-0.3-0.2-0.5V207h-5.2v7.7h1.1c0.3,0,0.7,0,1,0s0.7-0.1,1-0.1    c0.3-0.1,0.6-0.2,0.8-0.3c0.2-0.1,0.4-0.3,0.5-0.5c0.2,0.2,0.4,0.4,0.6,0.6c0.2,0.1,0.5,0.2,0.8,0.3c0.3,0.1,0.5,0.1,0.8,0.1    c0.3,0,0.5,0,0.8,0H164.8z M159.8,214.1c-0.2,0-0.4,0-0.7,0c-0.2,0-0.5-0.1-0.7-0.2c-0.2-0.1-0.5-0.2-0.8-0.4s-0.5-0.5-0.7-0.9    c-0.2,0.4-0.4,0.7-0.6,0.9s-0.5,0.3-0.9,0.4c-0.3,0.1-0.6,0.1-1,0.1c-0.3,0-0.6,0-0.9,0h-0.5v-6.5h3.9v2.2c0,0.3,0.1,0.6,0.3,0.9    c0.2,0.3,0.5,0.4,0.9,0.4h3.6c0.3,0,0.6-0.1,0.9-0.4c0.2-0.2,0.4-0.6,0.4-0.9v-1.8c0-0.2-0.1-0.4-0.2-0.6    c-0.1-0.2-0.2-0.3-0.4-0.5h0l-8.3-5.2c-0.4-0.3-0.7-0.6-0.9-0.9c-0.2-0.3-0.2-0.7-0.2-1.2v-4.5c0-0.8,0.3-1.4,0.8-2    c0.5-0.6,1.2-0.8,2-0.8h4.7c0.2,0,0.4,0,0.7,0s0.6,0.1,0.8,0.1c0.3,0.1,0.6,0.2,0.8,0.4c0.3,0.2,0.5,0.4,0.7,0.8    c0.2-0.3,0.4-0.6,0.7-0.8c0.3-0.2,0.5-0.3,0.9-0.4c0.3-0.1,0.6-0.1,1-0.1c0.3,0,0.6,0,0.9,0h0.5v6.5h-4v-2.3    c0-0.3-0.1-0.6-0.3-0.9c-0.2-0.3-0.5-0.4-0.9-0.4h-4.1c-0.3,0-0.6,0.1-0.9,0.4c-0.2,0.2-0.4,0.6-0.4,0.9v1.7    c0,0.2,0.1,0.5,0.2,0.6c0.1,0.2,0.2,0.3,0.4,0.4l8.9,5.4c0.5,0.3,0.8,0.6,0.9,0.9s0.2,0.7,0.2,1.2v4.4c0,0.8-0.3,1.4-0.8,2    c-0.6,0.6-1.2,0.8-2,0.8H159.8z M158.6,198.2l3.5,2.1V197h-3.5V198.2z M158.6,209.6h2.9v-1.3l-2.9-1.8V209.6z"></path>
		<path class="st2" d="M186,190.9c0.6,0,1.2,0.1,1.7,0.4c0.5,0.2,1,0.6,1.4,1c0.4,0.4,0.7,0.9,0.9,1.4s0.3,1.1,0.3,1.7v8.7    c0,0.6-0.1,1.2-0.3,1.7c-0.2,0.5-0.5,1-0.9,1.4s-0.9,0.7-1.4,1c-0.5,0.2-1.1,0.3-1.7,0.3h-5.6v1.2h1.5v6.1h-10.1v-6.1h1.5V197    h-1.5v-6.1H186z M172.7,191.9v4.2h1.6v14.5h-1.5v4.2h8.2v-4.2h-1.5v-3.1h6.6c0.5,0,0.9-0.1,1.3-0.3c0.4-0.2,0.8-0.4,1.1-0.7    c0.3-0.3,0.6-0.7,0.7-1.1c0.2-0.4,0.3-0.9,0.3-1.4v-8.7c0-0.5-0.1-0.9-0.3-1.3c-0.2-0.4-0.4-0.8-0.7-1.1s-0.7-0.6-1.1-0.7    c-0.4-0.2-0.9-0.3-1.3-0.3H172.7z M186,192.5c0.8,0,1.5,0.3,2,0.8c0.5,0.6,0.8,1.2,0.8,2v8.7c0,0.8-0.3,1.5-0.8,2s-1.2,0.8-2,0.8    h-7.2v4.4h1.5v2.9h-7v-2.9h1.5v-15.7h-1.5v-2.9H186z M183.6,203.9c0.4,0,0.7-0.1,0.9-0.4c0.3-0.2,0.4-0.5,0.4-0.9v-6    c0-0.4-0.1-0.7-0.4-0.9c-0.3-0.2-0.6-0.4-0.9-0.4h-4.8v8.5H183.6z M179.4,203.3v-7.2h4.2c0.2,0,0.3,0.1,0.5,0.2    c0.1,0.1,0.2,0.3,0.2,0.5v6c0,0.2-0.1,0.3-0.2,0.4s-0.3,0.2-0.5,0.2H179.4z M183.3,202.3V197h-3v5.3H183.3z"></path>
		<path class="st2" d="M207.5,190.9c0.6,0,1.2,0.1,1.7,0.4c0.5,0.2,1,0.6,1.4,1c0.4,0.4,0.7,0.9,0.9,1.4c0.2,0.5,0.3,1.1,0.3,1.7    v15.9c0,0.6-0.1,1.2-0.3,1.7c-0.2,0.5-0.5,1-0.9,1.4s-0.9,0.7-1.4,1c-0.5,0.2-1.1,0.4-1.7,0.4h-9.7c-0.6,0-1.2-0.1-1.7-0.4    c-0.5-0.2-1-0.6-1.4-1c-0.4-0.4-0.7-0.9-1-1.4c-0.2-0.5-0.4-1.1-0.4-1.7v-15.9c0-0.6,0.1-1.2,0.4-1.7c0.2-0.5,0.6-1,1-1.4    c0.4-0.4,0.9-0.7,1.4-1c0.5-0.2,1.1-0.4,1.7-0.4H207.5z M197.9,191.9c-0.5,0-0.9,0.1-1.3,0.3c-0.4,0.2-0.8,0.4-1.1,0.7    s-0.6,0.7-0.7,1.1s-0.3,0.9-0.3,1.3v15.9c0,0.5,0.1,0.9,0.3,1.3c0.2,0.4,0.4,0.8,0.7,1.1s0.7,0.6,1.1,0.7c0.4,0.2,0.9,0.3,1.3,0.3    h9.7c0.5,0,0.9-0.1,1.3-0.3c0.4-0.2,0.8-0.4,1.1-0.7s0.5-0.7,0.7-1.1c0.2-0.4,0.3-0.9,0.3-1.3v-15.9c0-0.5-0.1-0.9-0.3-1.3    c-0.2-0.4-0.4-0.8-0.7-1.1s-0.7-0.6-1.1-0.7c-0.4-0.2-0.9-0.3-1.3-0.3H197.9z M207.5,192.5c0.4,0,0.8,0.1,1.1,0.2    c0.3,0.1,0.6,0.4,0.9,0.6c0.2,0.3,0.4,0.6,0.6,0.9s0.2,0.7,0.2,1.1v15.9c0,0.4-0.1,0.7-0.2,1.1s-0.3,0.6-0.6,0.9    c-0.2,0.3-0.5,0.5-0.9,0.6c-0.3,0.1-0.7,0.2-1.1,0.2h-9.7c-0.8,0-1.4-0.3-2-0.8c-0.6-0.6-0.8-1.2-0.8-2v-15.9c0-0.8,0.3-1.4,0.8-2    c0.6-0.6,1.2-0.8,2-0.8H207.5z M200.5,195.4c-0.3,0-0.6,0.1-0.9,0.4c-0.3,0.2-0.4,0.5-0.4,0.9v13.2c0,0.4,0.1,0.7,0.4,0.9    c0.3,0.2,0.5,0.4,0.9,0.4h4.4c0.4,0,0.7-0.1,1-0.4c0.2-0.2,0.4-0.6,0.4-0.9v-13.2c0-0.4-0.1-0.7-0.4-0.9c-0.2-0.2-0.6-0.4-1-0.4    H200.5z M204.9,196c0.5,0,0.7,0.2,0.7,0.6v13.2c0,0.4-0.2,0.6-0.7,0.6h-4.4c-0.2,0-0.3-0.1-0.5-0.2c-0.1-0.1-0.2-0.3-0.2-0.5    v-13.2c0-0.2,0.1-0.3,0.2-0.5c0.1-0.1,0.3-0.2,0.5-0.2H204.9z M200.8,209.6h3.8v-12.6h-3.8V209.6z"></path>
		<path class="st2" d="M224.6,210.1v5.5h-10.2v-6.1h1.6V197h-1.6v-6.1h14.7c0.6,0,1.2,0.1,1.7,0.4c0.5,0.2,1,0.6,1.4,1    c0.4,0.4,0.7,0.9,0.9,1.4s0.3,1.1,0.3,1.7v7.5c0,0.8-0.3,1.6-0.8,2.3c-0.5,0.7-1.2,1.2-1.9,1.6l1.5,2.8h2.2v6.1h-7.3L224.6,210.1z     M222.2,210.5v-4.2h1.7l3.9,8.4h5.7v-4.2h-1.8l-2.3-4.2c0.4-0.1,0.8-0.2,1.1-0.4c0.4-0.2,0.7-0.5,1-0.8c0.3-0.3,0.5-0.6,0.7-1    s0.3-0.8,0.3-1.2v-7.5c0-0.5-0.1-0.9-0.3-1.3s-0.4-0.8-0.7-1.1c-0.3-0.3-0.7-0.6-1.1-0.7c-0.4-0.2-0.9-0.3-1.3-0.3h-13.7v4.2h1.5    v14.5h-1.5v4.2h8.3v-4.2H222.2z M223.1,211.2v2.9h-7v-2.9h1.5v-15.7h-1.5v-2.9h13.1c0.8,0,1.4,0.3,2,0.8c0.5,0.6,0.8,1.2,0.8,2    v7.5c0,0.3-0.1,0.7-0.3,1s-0.5,0.6-0.8,0.9c-0.3,0.3-0.7,0.5-1.1,0.7s-0.8,0.3-1.3,0.4l2.9,5.4h1.6v2.9h-4.7l-3.9-8.4h-2.8v5.5    H223.1z M226.8,202.9c0.4,0,0.7-0.1,0.9-0.4c0.2-0.2,0.4-0.5,0.4-0.9v-5c0-0.4-0.1-0.7-0.4-0.9c-0.2-0.2-0.6-0.4-0.9-0.4h-5.2v7.5    H226.8z M222.2,202.3v-6.2h4.6c0.2,0,0.3,0.1,0.5,0.2c0.1,0.1,0.2,0.3,0.2,0.5v5c0,0.2-0.1,0.3-0.2,0.4c-0.1,0.1-0.3,0.2-0.5,0.2    H222.2z M226.5,201.4V197h-3.4v4.4H226.5z M224.4,209.6l-1.1-2.3h-0.2v2.3H224.4z"></path>
		<path class="st2" d="M242.8,197v5.2h-6.6v-11.3h22.1v11.3h-6.6V197h-0.8v12.6h1.8v6.1h-10.7v-6.1h1.7V197H242.8z M244.6,196.1    v14.5h-1.8v4.2h8.9v-4.2h-1.8v-14.5h2.7v5.2h4.7v-9.3h-20.2v9.3h4.7v-5.2H244.6z M241.3,195.4v5.2h-3.5v-8.1h18.9v8.1h-3.5v-5.2    h-3.9v15.7h1.8v2.9h-7.6v-2.9h1.7v-15.7H241.3z"></path>
		<path class="st2" d="M269.5,215.6c-0.5,0-1,0-1.5-0.1s-1-0.2-1.4-0.6c-0.4,0.3-0.8,0.5-1.4,0.5c-0.6,0.1-1.2,0.1-2,0.1h-2.1V206    h6.4l-4.5-2.9c-0.7-0.5-1.2-0.9-1.5-1.4c-0.2-0.5-0.4-1.1-0.4-2v-4.5c0-0.6,0.1-1.2,0.3-1.7c0.2-0.5,0.5-1,0.9-1.4    c0.4-0.4,0.9-0.7,1.4-1c0.5-0.2,1.1-0.4,1.8-0.4h4.7c0.5,0,1,0,1.6,0.1s1.1,0.2,1.5,0.5c0.4-0.3,0.9-0.4,1.4-0.5    c0.5-0.1,1.2-0.1,2-0.1h2.1v9.7h-6.7l4.8,2.9c0.8,0.5,1.3,0.9,1.5,1.4c0.2,0.5,0.4,1.1,0.4,1.9v4.4c0,0.6-0.1,1.2-0.4,1.7    c-0.2,0.5-0.6,1-1,1.4c-0.4,0.4-0.9,0.7-1.4,1c-0.5,0.2-1.1,0.4-1.7,0.4H269.5z M274.4,214.7c0.5,0,0.9-0.1,1.3-0.3    c0.4-0.2,0.8-0.4,1.1-0.7c0.3-0.3,0.6-0.7,0.7-1.1c0.2-0.4,0.3-0.9,0.3-1.3v-4.4c0-0.6-0.1-1.1-0.3-1.5s-0.5-0.7-1.1-1.1l-8.9-5.4    c-0.2-0.1-0.2-0.3-0.2-0.5v-1.7c0-0.2,0.1-0.3,0.2-0.5c0.1-0.1,0.3-0.2,0.4-0.2h4.1c0.2,0,0.4,0.1,0.5,0.2    c0.1,0.1,0.2,0.3,0.2,0.5v2.9h5.2v-7.8h-1.2c-0.3,0-0.7,0-1,0c-0.4,0-0.7,0.1-1,0.1c-0.3,0.1-0.6,0.2-0.9,0.3    c-0.2,0.1-0.4,0.3-0.5,0.5c-0.2-0.2-0.4-0.4-0.6-0.6c-0.3-0.1-0.5-0.2-0.8-0.3c-0.3-0.1-0.6-0.1-0.9-0.1c-0.3,0-0.6,0-0.8,0h-4.6    c-0.5,0-1,0.1-1.4,0.3c-0.4,0.2-0.8,0.4-1.1,0.7s-0.5,0.7-0.7,1.1s-0.3,0.9-0.3,1.3v4.5c0,0.6,0.1,1.1,0.3,1.5    c0.2,0.4,0.6,0.7,1.1,1.1l8.3,5.2c0.1,0,0.2,0.1,0.2,0.2c0,0.1,0.1,0.2,0.1,0.3v1.8c0,0.2-0.1,0.3-0.2,0.5    c-0.1,0.1-0.3,0.2-0.4,0.2h-3.6c-0.2,0-0.3-0.1-0.4-0.2c-0.1-0.1-0.2-0.3-0.2-0.5V207H262v7.7h1.1c0.3,0,0.7,0,1,0s0.7-0.1,1-0.1    c0.3-0.1,0.6-0.2,0.8-0.3c0.2-0.1,0.4-0.3,0.5-0.5c0.2,0.2,0.4,0.4,0.6,0.6c0.2,0.1,0.5,0.2,0.8,0.3c0.3,0.1,0.5,0.1,0.8,0.1    c0.3,0,0.5,0,0.8,0H274.4z M269.4,214.1c-0.2,0-0.4,0-0.7,0c-0.2,0-0.5-0.1-0.7-0.2c-0.2-0.1-0.5-0.2-0.8-0.4s-0.5-0.5-0.7-0.9    c-0.2,0.4-0.4,0.7-0.6,0.9s-0.5,0.3-0.9,0.4c-0.3,0.1-0.6,0.1-1,0.1c-0.3,0-0.6,0-0.9,0h-0.5v-6.5h3.9v2.2c0,0.3,0.1,0.6,0.3,0.9    c0.2,0.3,0.5,0.4,0.9,0.4h3.6c0.3,0,0.6-0.1,0.9-0.4c0.2-0.2,0.4-0.6,0.4-0.9v-1.8c0-0.2-0.1-0.4-0.2-0.6    c-0.1-0.2-0.2-0.3-0.4-0.5h0l-8.3-5.2c-0.4-0.3-0.7-0.6-0.9-0.9c-0.2-0.3-0.2-0.7-0.2-1.2v-4.5c0-0.8,0.3-1.4,0.8-2    c0.5-0.6,1.2-0.8,2-0.8h4.7c0.2,0,0.4,0,0.7,0s0.6,0.1,0.8,0.1c0.3,0.1,0.6,0.2,0.8,0.4c0.3,0.2,0.5,0.4,0.7,0.8    c0.2-0.3,0.4-0.6,0.7-0.8c0.3-0.2,0.5-0.3,0.9-0.4c0.3-0.1,0.6-0.1,1-0.1c0.3,0,0.6,0,0.9,0h0.5v6.5h-4v-2.3    c0-0.3-0.1-0.6-0.3-0.9c-0.2-0.3-0.5-0.4-0.9-0.4h-4.1c-0.3,0-0.6,0.1-0.9,0.4c-0.2,0.2-0.4,0.6-0.4,0.9v1.7    c0,0.2,0.1,0.5,0.2,0.6c0.1,0.2,0.2,0.3,0.4,0.4l8.9,5.4c0.5,0.3,0.8,0.6,0.9,0.9s0.2,0.7,0.2,1.2v4.4c0,0.8-0.3,1.4-0.8,2    c-0.6,0.6-1.2,0.8-2,0.8H269.4z M268.2,198.2l3.5,2.1V197h-3.5V198.2z M268.2,209.6h2.9v-1.3l-2.9-1.8V209.6z"></path>
	</g>
	<g>
		<path class="st2" d="M132.6,225.6v3h-0.2c-0.1-0.6-0.2-1-0.4-1.4c-0.2-0.3-0.5-0.6-0.8-0.8c-0.4-0.2-0.7-0.3-1.1-0.3    c-0.4,0-0.8,0.1-1.1,0.4c-0.3,0.3-0.4,0.6-0.4,0.9c0,0.3,0.1,0.5,0.3,0.7c0.3,0.3,0.9,0.7,1.9,1.3c0.8,0.4,1.4,0.8,1.6,1    s0.5,0.5,0.7,0.8c0.2,0.3,0.2,0.6,0.2,1c0,0.7-0.3,1.2-0.8,1.7s-1.2,0.7-2,0.7c-0.2,0-0.5,0-0.7-0.1c-0.1,0-0.4-0.1-0.8-0.2    c-0.4-0.1-0.7-0.2-0.8-0.2c-0.1,0-0.2,0-0.3,0.1c-0.1,0.1-0.1,0.2-0.1,0.4h-0.2v-3h0.2c0.1,0.6,0.3,1.1,0.4,1.4s0.5,0.6,0.9,0.8    s0.8,0.3,1.3,0.3c0.5,0,0.9-0.1,1.3-0.4s0.5-0.6,0.5-1c0-0.2-0.1-0.4-0.2-0.6s-0.3-0.4-0.5-0.6c-0.2-0.1-0.6-0.4-1.4-0.8    c-0.7-0.4-1.3-0.7-1.6-1c-0.3-0.2-0.5-0.5-0.7-0.8s-0.2-0.6-0.2-1c0-0.6,0.2-1.2,0.7-1.6s1.1-0.7,1.8-0.7c0.5,0,0.9,0.1,1.5,0.3    c0.2,0.1,0.4,0.2,0.5,0.2c0.1,0,0.2,0,0.3-0.1c0.1-0.1,0.1-0.2,0.2-0.4H132.6z"></path>
		<path class="st2" d="M138.1,226.3v3.4h1.9c0.5,0,0.8-0.1,1-0.2c0.2-0.2,0.3-0.5,0.4-1h0.2v3h-0.2c-0.1-0.4-0.1-0.7-0.2-0.8    c-0.1-0.1-0.2-0.3-0.4-0.3c-0.2-0.1-0.4-0.1-0.8-0.1h-1.9v2.8c0,0.4,0,0.6,0.1,0.7c0,0.1,0.1,0.1,0.2,0.2s0.2,0.1,0.5,0.1h1.5    c0.5,0,0.8,0,1.1-0.1c0.2-0.1,0.4-0.2,0.6-0.4c0.3-0.3,0.5-0.7,0.8-1.2h0.3l-0.7,2.2h-6.6v-0.2h0.3c0.2,0,0.4,0,0.6-0.1    c0.1-0.1,0.2-0.2,0.3-0.3s0.1-0.4,0.1-0.8v-5.6c0-0.5-0.1-0.9-0.2-1c-0.2-0.2-0.4-0.3-0.8-0.3h-0.3v-0.2h6.6l0.1,1.9h-0.2    c-0.1-0.5-0.2-0.8-0.3-0.9c-0.1-0.2-0.3-0.3-0.5-0.4c-0.2-0.1-0.5-0.1-0.9-0.1H138.1z"></path>
		<path class="st2" d="M153.7,234.5h-2.3l-2.9-4c-0.2,0-0.4,0-0.5,0c-0.1,0-0.1,0-0.2,0s-0.1,0-0.2,0v2.5c0,0.5,0.1,0.9,0.2,1    c0.2,0.2,0.4,0.3,0.7,0.3h0.3v0.2h-3.7v-0.2h0.3c0.4,0,0.6-0.1,0.8-0.4c0.1-0.1,0.1-0.4,0.1-0.9v-5.6c0-0.5-0.1-0.9-0.2-1    c-0.2-0.2-0.4-0.3-0.7-0.3h-0.3v-0.2h3.1c0.9,0,1.6,0.1,2,0.2c0.4,0.1,0.8,0.4,1.1,0.7s0.5,0.8,0.5,1.3c0,0.5-0.2,1-0.5,1.4    s-0.9,0.7-1.6,0.8l1.8,2.5c0.4,0.6,0.8,0.9,1,1.1c0.3,0.2,0.7,0.3,1.1,0.4V234.5z M147.6,230c0.1,0,0.2,0,0.2,0s0.1,0,0.1,0    c0.8,0,1.4-0.2,1.9-0.5s0.6-0.8,0.6-1.4c0-0.5-0.2-1-0.5-1.3c-0.3-0.3-0.8-0.5-1.3-0.5c-0.2,0-0.6,0-1,0.1V230z"></path>
		<path class="st2" d="M163.3,225.8v0.2c-0.3,0.1-0.5,0.2-0.7,0.3c-0.2,0.2-0.4,0.5-0.6,1l-3,7.3h-0.2l-3.2-7.4    c-0.2-0.4-0.3-0.6-0.3-0.7c-0.1-0.1-0.2-0.2-0.4-0.3s-0.4-0.1-0.6-0.1v-0.2h3.5v0.2c-0.4,0-0.7,0.1-0.8,0.2    c-0.1,0.1-0.2,0.2-0.2,0.4c0,0.2,0.1,0.5,0.3,1l2.2,5l2-5c0.2-0.5,0.3-0.8,0.3-1c0-0.1-0.1-0.2-0.2-0.4c-0.1-0.1-0.3-0.2-0.6-0.2    c0,0-0.1,0-0.1,0v-0.2H163.3z"></path>
		<path class="st2" d="M169.1,234.2v0.2h-3.7v-0.2h0.3c0.4,0,0.6-0.1,0.8-0.3c0.1-0.1,0.2-0.5,0.2-1v-5.6c0-0.4,0-0.7-0.1-0.9    c0-0.1-0.1-0.2-0.3-0.3c-0.2-0.1-0.4-0.2-0.6-0.2h-0.3v-0.2h3.7v0.2h-0.3c-0.4,0-0.6,0.1-0.8,0.3c-0.1,0.1-0.2,0.5-0.2,1v5.6    c0,0.4,0,0.7,0.1,0.9c0,0.1,0.1,0.2,0.3,0.3c0.2,0.1,0.4,0.2,0.6,0.2H169.1z"></path>
		<path class="st2" d="M178.8,225.6l0.2,2.9h-0.2c-0.3-0.9-0.6-1.5-1.1-1.9s-1.1-0.6-1.8-0.6c-0.6,0-1.1,0.1-1.5,0.4    s-0.8,0.8-1.1,1.4s-0.4,1.4-0.4,2.4c0,0.8,0.1,1.5,0.4,2c0.2,0.6,0.6,1,1.1,1.3c0.5,0.3,1.1,0.5,1.7,0.5c0.6,0,1.1-0.1,1.5-0.4    s0.9-0.7,1.4-1.4l0.2,0.1c-0.4,0.8-0.9,1.3-1.5,1.7c-0.6,0.4-1.3,0.5-2,0.5c-1.4,0-2.5-0.5-3.3-1.6c-0.6-0.8-0.9-1.7-0.9-2.8    c0-0.9,0.2-1.6,0.6-2.4c0.4-0.7,0.9-1.3,1.6-1.7s1.4-0.6,2.2-0.6c0.6,0,1.2,0.2,1.8,0.5c0.2,0.1,0.3,0.1,0.4,0.1    c0.1,0,0.2,0,0.3-0.1c0.1-0.1,0.2-0.3,0.2-0.5H178.8z"></path>
		<path class="st2" d="M183.9,226.3v3.4h1.9c0.5,0,0.8-0.1,1-0.2c0.2-0.2,0.3-0.5,0.4-1h0.2v3h-0.2c-0.1-0.4-0.1-0.7-0.2-0.8    c-0.1-0.1-0.2-0.3-0.4-0.3c-0.2-0.1-0.4-0.1-0.8-0.1h-1.9v2.8c0,0.4,0,0.6,0.1,0.7c0,0.1,0.1,0.1,0.2,0.2s0.2,0.1,0.5,0.1h1.5    c0.5,0,0.8,0,1.1-0.1c0.2-0.1,0.4-0.2,0.6-0.4c0.3-0.3,0.5-0.7,0.8-1.2h0.3l-0.7,2.2h-6.6v-0.2h0.3c0.2,0,0.4,0,0.6-0.1    c0.1-0.1,0.2-0.2,0.3-0.3s0.1-0.4,0.1-0.8v-5.6c0-0.5-0.1-0.9-0.2-1c-0.2-0.2-0.4-0.3-0.8-0.3h-0.3v-0.2h6.6l0.1,1.9h-0.2    c-0.1-0.5-0.2-0.8-0.3-0.9c-0.1-0.2-0.3-0.3-0.5-0.4c-0.2-0.1-0.5-0.1-0.9-0.1H183.9z"></path>
		<path class="st2" d="M196.6,225.6v3h-0.2c-0.1-0.6-0.2-1-0.4-1.4c-0.2-0.3-0.5-0.6-0.8-0.8c-0.4-0.2-0.7-0.3-1.1-0.3    c-0.4,0-0.8,0.1-1.1,0.4c-0.3,0.3-0.4,0.6-0.4,0.9c0,0.3,0.1,0.5,0.3,0.7c0.3,0.3,0.9,0.7,1.9,1.3c0.8,0.4,1.4,0.8,1.6,1    s0.5,0.5,0.7,0.8c0.2,0.3,0.2,0.6,0.2,1c0,0.7-0.3,1.2-0.8,1.7s-1.2,0.7-2,0.7c-0.2,0-0.5,0-0.7-0.1c-0.1,0-0.4-0.1-0.8-0.2    c-0.4-0.1-0.7-0.2-0.8-0.2c-0.1,0-0.2,0-0.3,0.1c-0.1,0.1-0.1,0.2-0.1,0.4h-0.2v-3h0.2c0.1,0.6,0.3,1.1,0.4,1.4s0.5,0.6,0.9,0.8    s0.8,0.3,1.3,0.3c0.5,0,0.9-0.1,1.3-0.4s0.5-0.6,0.5-1c0-0.2-0.1-0.4-0.2-0.6s-0.3-0.4-0.5-0.6c-0.2-0.1-0.6-0.4-1.4-0.8    c-0.7-0.4-1.3-0.7-1.6-1c-0.3-0.2-0.5-0.5-0.7-0.8s-0.2-0.6-0.2-1c0-0.6,0.2-1.2,0.7-1.6s1.1-0.7,1.8-0.7c0.5,0,0.9,0.1,1.5,0.3    c0.2,0.1,0.4,0.2,0.5,0.2c0.1,0,0.2,0,0.3-0.1c0.1-0.1,0.1-0.2,0.2-0.4H196.6z"></path>
	</g>
</g>
<g id="NEW">
</g>
</svg>
